<svg width="16" height="25" viewBox="0 0 16 25" fill="none" xmlns="http://www.w3.org/2000/svg">
<path d="M7.95 16.6167H4C1.81556 16.6167 0.05 14.7805 0.05 12.5C0.05 10.2195 1.81556 8.38333 4 8.38333H7.95L7.95 12.5L7.95 16.6167ZM7.95 8.28333H4C1.81556 8.28333 0.05 6.4472 0.05 4.16667C0.05 1.88614 1.81556 0.05 4 0.05H7.95V8.28333ZM8.05 8.28333V0.05H12C14.1844 0.05 15.95 1.88614 15.95 4.16667C15.95 6.4472 14.1844 8.28333 12 8.28333L8.05 8.28333ZM4 16.7167H7.95V20.8333C7.95 23.1139 6.18443 24.95 4 24.95C1.81556 24.95 0.05 23.1139 0.05 20.8333C0.05 18.5528 1.81556 16.7167 4 16.7167ZM12 16.6167C9.81557 16.6167 8.05 14.7805 8.05 12.5C8.05 10.2195 9.81557 8.38333 12 8.38333C14.1844 8.38333 15.95 10.2195 15.95 12.5C15.95 14.7805 14.1844 16.6167 12 16.6167Z" fill="url(#paint0_linear_1162_209)" stroke="white" stroke-width="0.1"/>
<defs>
<linearGradient id="paint0_linear_1162_209" x1="8.04188" y1="-2.90658e-08" x2="8.04189" y2="25" gradientUnits="userSpaceOnUse">
<stop stop-color="#F24E1E"/>
<stop offset="0.204708" stop-color="#FF7262"/>
<stop offset="0.507878" stop-color="#A259FF"/>
<stop offset="0.761842" stop-color="#1ABCFE"/>
<stop offset="1" stop-color="#0ACF83"/>
</linearGradient>
</defs>
</svg>
