<svg width="25" height="35" viewBox="0 0 25 35" fill="none" xmlns="http://www.w3.org/2000/svg">
<path d="M8.34968 0.321299C8.05641 0.511063 7.55612 1.01135 7.22834 1.44264C6.65904 2.25346 6.53828 2.30521 5.17542 2.49498C3.57104 2.70199 2.70847 3.63357 2.50145 5.37596C2.38069 6.4628 2.29444 6.58356 1.12134 7.48063C0 8.3432 -0.293274 9.75782 0.345028 11.1897C0.776314 12.1213 0.776314 12.3628 0.345028 13.3634C0.155263 13.8119 0 14.4847 0 14.847C0 15.9338 0.327777 16.3996 2.01842 17.7797C2.27719 17.9867 2.4152 18.3835 2.50145 19.1253C2.70847 20.9885 3.60555 21.8683 5.45145 22.0581C6.41753 22.1616 6.65904 22.2478 6.88331 22.6101C8.19442 24.6113 9.57453 25.0253 11.6102 24.042C12.1795 23.766 12.3348 23.766 12.8178 23.9557C14.4567 24.6285 14.7672 24.6975 15.5435 24.4905C16.2508 24.3008 16.6649 23.9557 17.7862 22.6101C18.183 22.1616 18.3728 22.0753 19.0111 22.0753C20.6844 22.0753 22.0646 20.7815 22.0818 19.1943C22.0818 18.1938 22.1853 18.0212 23.1514 17.3312C24.6868 16.2271 24.9973 14.8297 24.1175 13.0356L23.7552 12.2593L24.2037 11.2414C24.4625 10.6721 24.6695 9.99934 24.6695 9.72332C24.6523 8.8435 24.0657 7.82566 23.2204 7.25637C22.2888 6.61806 22.0818 6.27304 22.0818 5.41047C22.0818 4.49614 21.478 3.35755 20.7707 2.90901C20.4084 2.70199 19.7529 2.51223 19.1318 2.46047C18.114 2.35696 18.0795 2.33971 17.4067 1.44264C17.0271 0.942348 16.4578 0.424807 16.1301 0.269543C15.3538 -0.109987 14.1807 -0.0754852 13.3698 0.338549C12.9903 0.528315 12.5073 0.683578 12.283 0.683578C12.076 0.683578 11.5929 0.528315 11.2134 0.338549C10.3336 -0.109987 9.05699 -0.109987 8.34968 0.321299ZM15.9921 0.9596C16.1991 1.09761 16.6131 1.54615 16.9064 1.97743C17.4929 2.84 17.976 3.09878 18.9075 3.09878C20.3049 3.09878 21.3918 4.08211 21.3918 5.35871C21.3918 6.41105 21.7195 7.01485 22.6166 7.6704C23.0824 7.99818 23.5999 8.55022 23.7552 8.878C24.0657 9.53355 24.0312 9.84408 23.3584 11.5692L23.0479 12.3628L23.5137 13.3979C24.2555 15.054 24.1175 15.6578 22.7374 16.7274C21.7713 17.4865 21.4263 18.1248 21.409 19.1426C21.3745 20.4364 20.3394 21.3853 18.942 21.3853C17.9932 21.4025 17.5964 21.6268 16.8719 22.5929C16.5614 23.0242 15.9921 23.5244 15.6125 23.697C14.9742 24.0247 14.9225 24.0247 14.1634 23.7315C12.3003 23.0069 12.1967 23.0069 11.0409 23.5244C10.2128 23.904 9.8333 23.973 9.35026 23.8867C8.74647 23.766 8.53945 23.5935 7.29735 22.1098C6.86606 21.6095 6.6763 21.5233 5.67571 21.3853C3.86432 21.1783 3.34677 20.6435 3.15701 18.8838C3.03625 17.8142 2.77748 17.3657 1.8804 16.7791C0.672805 15.9856 0.396782 14.8987 1.03508 13.4669C1.46637 12.518 1.46637 11.8797 1.03508 11.0344C0.345028 9.68882 0.672805 8.55022 2.00116 7.65315C2.82923 7.1011 3.019 6.72157 3.17426 5.42772C3.22601 4.94468 3.41578 4.37538 3.58829 4.13386C4.03683 3.53006 4.95116 3.09878 5.81373 3.09878C6.60729 3.09878 7.36635 2.59848 7.86664 1.73591C8.48769 0.683578 9.7988 0.407555 11.1962 1.02861C12.1105 1.44264 12.6108 1.45989 13.3353 1.08036C14.4912 0.493813 15.1812 0.459309 15.9921 0.9596Z" fill="url(#paint0_linear_1056_546)"/>
<path d="M8.3845 2.56456C7.53918 3.6514 7.12515 3.89292 5.69328 4.03093C4.52018 4.15169 4.22691 4.46221 4.0544 5.80782C3.89913 7.13618 3.62311 7.60197 2.60528 8.34378C1.53569 9.10284 1.38043 9.60313 1.86347 10.6037C2.48452 11.8803 2.50177 12.4496 2.00148 13.5537C1.34592 14.9683 1.39768 15.2098 2.46727 16.0552C3.65761 17.004 3.93364 17.4525 4.07165 18.7464C4.20966 20.1092 4.62369 20.5233 5.84854 20.5233C6.90088 20.5233 7.62544 20.9373 8.419 21.9896C9.19532 23.0075 9.76461 23.1627 10.8515 22.6107C11.7313 22.1622 12.6801 22.1449 13.6462 22.5934C14.0602 22.7832 14.6468 22.9385 14.9573 22.9385C15.4403 22.9385 15.6128 22.8005 16.2166 21.9896C17.062 20.8511 17.3207 20.6958 18.7871 20.5233C20.1672 20.3508 20.5295 19.9885 20.5295 18.8671C20.5295 17.7113 20.909 17.004 21.9096 16.2794C23.1172 15.4169 23.2207 15.0718 22.6859 13.7952C22.1511 12.5186 22.1511 11.8803 22.6859 10.7245C23.238 9.53413 23.1345 9.13735 22.0649 8.37828C21.0125 7.60197 20.6848 7.10168 20.5812 6.0666C20.426 4.42771 19.9429 3.96192 18.3731 3.96192C17.683 3.96192 16.8894 3.44438 16.2856 2.63356C15.3886 1.40871 14.9745 1.28795 13.8014 1.89175C13.4219 2.08152 12.7836 2.23678 12.3351 2.23678C11.8865 2.23678 11.2482 2.08152 10.8687 1.89175C9.69561 1.28795 9.26432 1.40871 8.3845 2.56456ZM13.8014 3.09935C15.5093 3.37537 17.5968 4.46221 18.8734 5.75607C24.4456 11.4145 20.7883 20.9718 12.8526 21.5066C7.64269 21.8516 3.07106 17.625 3.07106 12.4324C3.07106 9.62039 3.84738 7.72273 5.77954 5.75607C7.1424 4.37596 8.55701 3.58239 10.3512 3.20286C11.7313 2.89233 12.3696 2.87508 13.8014 3.09935Z" fill="url(#paint1_linear_1056_546)"/>
<path d="M10.6961 6.63538C8.66039 7.20467 7.00426 8.89531 6.46947 10.9482C6.14169 12.2248 6.14169 12.6044 6.46947 13.881C7.02151 15.9684 8.47063 17.4865 10.5753 18.1421C12.5247 18.7631 14.7846 18.2456 16.3718 16.8137C17.2688 16.0029 18.0969 14.3123 18.2349 13.0702C18.3384 12.0696 18.2004 10.862 17.9762 10.8792C17.5966 10.8965 17.0101 12.0351 16.8721 13.0011C16.527 15.5199 14.4396 17.2277 11.9037 17.038C9.64373 16.8655 7.88408 15.1576 7.64256 12.8631C7.29753 9.53362 10.6443 6.9114 13.8013 8.01549C14.1981 8.1535 14.5431 8.27426 14.5604 8.27426C14.5776 8.27426 14.7674 8.03274 14.9917 7.75672L15.3712 7.22193L14.5949 6.8769C13.5253 6.41111 11.8864 6.3076 10.6961 6.63538Z" fill="url(#paint2_linear_1056_546)"/>
<path d="M15.3195 8.93033C14.6294 9.77565 13.7151 10.897 13.2838 11.4318C12.8525 11.9666 12.404 12.3979 12.2833 12.4151C12.1452 12.4151 11.5759 11.9838 10.9894 11.4663C10.4201 10.9487 9.8508 10.5175 9.73004 10.5175C9.60928 10.5175 9.22975 10.8452 8.88472 11.242L8.26367 11.9838L9.7818 13.4157C10.6099 14.192 11.5759 15.0546 11.921 15.3479L12.542 15.8481L15.4058 12.3289C16.9929 10.3967 18.2867 8.74056 18.2867 8.6543C18.2867 8.46454 16.9929 7.4122 16.7514 7.4122C16.6479 7.4122 16.0096 8.10226 15.3195 8.93033Z" fill="url(#paint3_linear_1056_546)"/>
<path d="M4.2265 23.1454C4.17475 23.2662 3.50194 25.0776 2.69112 27.165C1.36276 30.6498 1.27651 30.9603 1.58703 31.0121C1.7768 31.0466 1.96656 31.0466 2.00107 30.9948C2.13908 30.8568 5.00281 23.387 5.00281 23.1454C5.00281 23.0419 4.84755 22.9384 4.65778 22.9384C4.46802 22.9384 4.261 23.0419 4.2265 23.1454Z" fill="url(#paint4_linear_1056_546)"/>
<path d="M18.9939 23.0585C18.9939 23.1448 19.7874 25.1805 20.7535 27.5957C22.2716 31.3565 22.5822 31.9948 22.9099 32.0465C23.117 32.081 23.2895 32.0465 23.2895 31.9775C23.2895 31.9085 22.4959 29.8383 21.5298 27.3886C19.9427 23.3691 19.7357 22.9378 19.3734 22.9378C19.1491 22.9378 18.9766 22.9895 18.9939 23.0585Z" fill="url(#paint5_linear_1056_546)"/>
<path d="M5.86536 23.4906C5.76185 23.7148 5.0718 25.4745 4.32999 27.4239L2.98438 30.9604L4.38174 31.0122C5.6756 31.0639 5.81361 31.0984 6.3829 31.616C6.71068 31.9265 7.19372 32.3578 7.43524 32.5648L7.88378 32.9443L9.28114 29.2525C10.0575 27.2341 10.6958 25.5435 10.6958 25.509C10.6958 25.4745 10.2472 25.44 9.69517 25.4227C8.45307 25.4227 7.36623 24.8362 6.64167 23.8183C6.3829 23.4216 6.14138 23.111 6.08963 23.111C6.05513 23.111 5.95162 23.2835 5.86536 23.4906Z" fill="url(#paint6_linear_1056_546)"/>
<path d="M17.4068 24.4045C16.3372 25.4051 15.1468 25.7328 13.8357 25.3706C13.5425 25.2843 13.2837 25.2326 13.2837 25.2843C13.2837 25.4223 16.6132 33.7203 16.7167 33.841C16.7685 33.91 17.3033 33.5305 17.9071 33.0129L18.9939 32.0814H20.2878C20.9951 32.0814 21.5644 32.0296 21.5644 31.9434C21.5644 31.7708 18.4419 23.9214 18.3039 23.7662C18.2521 23.6972 17.8381 23.9905 17.4068 24.4045Z" fill="url(#paint7_linear_1056_546)"/>
<path d="M11.8518 24.9565C11.8173 25.0428 11.0583 26.975 10.1785 29.2867C8.71208 33.151 8.60857 33.5133 8.85009 33.772C9.00535 33.9273 9.16062 34.0135 9.19512 33.9618C9.22962 33.9273 9.86792 32.2884 10.6097 30.3217C11.3515 28.3551 12.0071 26.7852 12.0761 26.8197C12.1451 26.8542 12.9042 28.7174 13.784 30.96C15.3021 34.7726 15.6299 35.3764 15.9749 34.8244C16.0957 34.6173 12.2659 24.8358 12.0589 24.8358C11.9898 24.8358 11.8863 24.8875 11.8518 24.9565Z" fill="url(#paint8_linear_1056_546)"/>
<defs>
<linearGradient id="paint0_linear_1056_546" x1="12.3348" y1="24.5938" x2="1.61395" y2="-0.0242225" gradientUnits="userSpaceOnUse">
<stop stop-color="#9F101C"/>
<stop offset="1" stop-color="#670009"/>
</linearGradient>
<linearGradient id="paint1_linear_1056_546" x1="12.2935" y1="22.9385" x2="2.95466" y2="1.52233" gradientUnits="userSpaceOnUse">
<stop stop-color="#9F101C"/>
<stop offset="1" stop-color="#670009"/>
</linearGradient>
<linearGradient id="paint2_linear_1056_546" x1="12.2468" y1="18.4009" x2="7.05054" y2="6.41599" gradientUnits="userSpaceOnUse">
<stop stop-color="#9F101C"/>
<stop offset="1" stop-color="#670009"/>
</linearGradient>
<linearGradient id="paint3_linear_1056_546" x1="13.2752" y1="15.8481" x2="10.0216" y2="6.99867" gradientUnits="userSpaceOnUse">
<stop stop-color="#9F101C"/>
<stop offset="1" stop-color="#670009"/>
</linearGradient>
<linearGradient id="paint4_linear_1056_546" x1="3.22016" y1="31.0361" x2="-1.60114" y2="26.1767" gradientUnits="userSpaceOnUse">
<stop stop-color="#9F101C"/>
<stop offset="1" stop-color="#670009"/>
</linearGradient>
<linearGradient id="paint5_linear_1056_546" x1="21.1411" y1="32.0601" x2="15.725" y2="26.22" gradientUnits="userSpaceOnUse">
<stop stop-color="#9F101C"/>
<stop offset="1" stop-color="#670009"/>
</linearGradient>
<linearGradient id="paint6_linear_1056_546" x1="6.84007" y1="32.9443" x2="1.86203" y2="24.0076" gradientUnits="userSpaceOnUse">
<stop stop-color="#9F101C"/>
<stop offset="1" stop-color="#670009"/>
</linearGradient>
<linearGradient id="paint7_linear_1056_546" x1="17.424" y1="33.8491" x2="12.4382" y2="24.4848" gradientUnits="userSpaceOnUse">
<stop stop-color="#9F101C"/>
<stop offset="1" stop-color="#670009"/>
</linearGradient>
<linearGradient id="paint8_linear_1056_546" x1="12.3636" y1="35.0005" x2="6.96517" y2="26.2124" gradientUnits="userSpaceOnUse">
<stop stop-color="#9F101C"/>
<stop offset="1" stop-color="#670009"/>
</linearGradient>
</defs>
</svg>
