<svg width="415" height="302" viewBox="0 0 415 302" fill="none" xmlns="http://www.w3.org/2000/svg">
<g clip-path="url(#clip0_948_150)" filter="url(#filter0_i_948_150)">
<path d="M241.737 53.2391C249.515 53.2391 255.82 46.9304 255.82 39.1482C255.82 31.366 249.515 25.0573 241.737 25.0573C233.959 25.0573 227.654 31.366 227.654 39.1482C227.654 46.9304 233.959 53.2391 241.737 53.2391Z" fill="#F2F2F2"/>
<path d="M350.983 262.364C371.916 246.411 381.914 219.604 375.655 194.032C375.499 193.396 375.335 192.762 375.162 192.13C371.013 176.951 360.747 162.524 345.784 157.674C333.221 153.601 319.507 156.733 306.4 155.113C280.671 151.934 260.724 131.104 246.688 109.296C232.653 87.4868 221.866 63.075 203.216 45.0577C172.474 15.3593 122.327 8.96517 84.2115 28.2966C46.0963 47.6282 21.8172 90.5167 22.8527 133.26C23.8881 176.004 49.2491 216.87 86.0794 238.552C99.6094 246.518 115.258 252.16 130.832 250.186C144.345 248.472 156.623 241.208 170.073 239.051C191.218 235.66 212.229 245.226 230.519 256.373C248.808 267.52 266.474 280.733 287.258 285.901C307.438 290.919 332.44 276.496 350.983 262.364Z" fill="#F2F2F2"/>
<path d="M320.908 29.1942C320.449 28.8881 319.985 28.5979 319.526 28.3024C306.261 19.8142 292.044 12.9184 277.167 7.75766L273.718 55.3698H251.85V0.807402C250.474 0.522426 249.086 0.253282 247.699 -3.05176e-05V55.3698H221.712C207.406 55.3698 193.686 49.6836 183.57 39.562C173.454 29.4404 167.771 15.7126 167.771 1.39853C166.379 1.69933 164.997 2.02121 163.615 2.36423V55.3699H142.449L139.163 9.96888C123.875 15.8353 109.361 23.55 95.9444 32.9412C95.7123 33.0995 95.4803 33.2631 95.2535 33.4214C94.0878 34.2394 92.938 35.0732 91.7935 35.9176V217.558H154.174L153.071 202.28L147.006 118.397H269.156L263.09 202.28L261.988 217.558H323.677V31.0308C322.759 30.408 321.836 29.7959 320.908 29.1942ZM163.615 104.544H146.004L142.749 59.5284H163.615V104.544ZM247.699 104.544H218.121V103.652C218.121 103.224 218.036 102.799 217.872 102.403C217.708 102.007 217.467 101.647 217.164 101.344C216.861 101.041 216.501 100.801 216.105 100.638C215.709 100.474 215.284 100.39 214.856 100.391H201.997C201.569 100.391 201.145 100.475 200.749 100.639C200.354 100.803 199.994 101.043 199.691 101.346C199.389 101.649 199.149 102.008 198.985 102.404C198.821 102.8 198.737 103.224 198.737 103.652V104.544H167.771V59.5284H247.699V104.544ZM251.85 104.544V59.5284H273.417L270.163 104.544H251.85Z" fill="#3F3D56"/>
<path d="M0 229.19C4.582 234.622 9.53796 239.727 14.8316 244.468L400.168 244.996C405.462 240.255 410.418 235.15 415 229.718L0 229.19Z" fill="#3F3D56"/>
<path d="M261.31 180.269V225.498C261.31 226.075 261.539 226.627 261.946 227.035C262.354 227.443 262.906 227.672 263.482 227.672H330.469C331.045 227.672 331.598 227.443 332.005 227.035C332.412 226.627 332.641 226.075 332.642 225.498V180.269C332.641 179.694 332.411 179.142 332.004 178.735C331.597 178.328 331.045 178.099 330.469 178.098H263.482C262.907 178.099 262.355 178.328 261.948 178.735C261.54 179.142 261.311 179.694 261.31 180.269Z" fill="#3F3D56"/>
<path d="M262.881 180.832V224.94C262.881 225.248 263.004 225.544 263.222 225.761C263.439 225.979 263.734 226.102 264.042 226.102H329.912C330.219 226.102 330.514 225.979 330.732 225.761C330.95 225.544 331.072 225.248 331.073 224.94V180.832C331.073 180.524 330.95 180.228 330.733 180.01C330.515 179.792 330.22 179.669 329.912 179.668H264.042C263.734 179.669 263.439 179.792 263.221 180.01C263.003 180.228 262.881 180.524 262.881 180.832Z" fill="#9F101C"/>
<path d="M259.909 234.319C260.031 234.473 260.187 234.597 260.365 234.682C260.542 234.767 260.737 234.811 260.934 234.81H332.661C332.857 234.81 333.051 234.766 333.228 234.681C333.405 234.597 333.561 234.474 333.685 234.321C333.808 234.169 333.896 233.991 333.942 233.8C333.989 233.609 333.992 233.411 333.951 233.218L332.838 227.927C332.792 227.711 332.692 227.51 332.549 227.343C332.405 227.175 332.222 227.046 332.016 226.967C331.867 226.909 331.708 226.879 331.548 226.879H262.043C261.882 226.879 261.724 226.909 261.574 226.967C261.368 227.046 261.185 227.175 261.042 227.343C260.898 227.51 260.799 227.711 260.752 227.927L259.639 233.218C259.599 233.41 259.603 233.609 259.65 233.799C259.696 233.99 259.785 234.167 259.909 234.319Z" fill="#2F2E41"/>
<path d="M329.086 229.158H330.781C330.923 229.158 331.038 229.043 331.038 228.901V228.09C331.038 227.947 330.923 227.832 330.781 227.832H329.086C328.944 227.832 328.829 227.947 328.829 228.09V228.901C328.829 229.043 328.944 229.158 329.086 229.158Z" fill="#3F3D56"/>
<path d="M324.668 229.158H326.362C326.504 229.158 326.62 229.043 326.62 228.901V228.09C326.62 227.947 326.504 227.832 326.362 227.832H324.668C324.526 227.832 324.41 227.947 324.41 228.09V228.901C324.41 229.043 324.526 229.158 324.668 229.158Z" fill="#3F3D56"/>
<path d="M320.25 229.158H321.944C322.086 229.158 322.201 229.043 322.201 228.901V228.09C322.201 227.947 322.086 227.832 321.944 227.832H320.25C320.107 227.832 319.992 227.947 319.992 228.09V228.901C319.992 229.043 320.107 229.158 320.25 229.158Z" fill="#3F3D56"/>
<path d="M315.832 229.158H317.526C317.668 229.158 317.783 229.043 317.783 228.901V228.09C317.783 227.947 317.668 227.832 317.526 227.832H315.832C315.689 227.832 315.574 227.947 315.574 228.09V228.901C315.574 229.043 315.689 229.158 315.832 229.158Z" fill="#3F3D56"/>
<path d="M311.413 229.158H313.107C313.249 229.158 313.365 229.043 313.365 228.901V228.09C313.365 227.947 313.249 227.832 313.107 227.832H311.413C311.271 227.832 311.156 227.947 311.156 228.09V228.901C311.156 229.043 311.271 229.158 311.413 229.158Z" fill="#3F3D56"/>
<path d="M306.995 229.158H308.689C308.831 229.158 308.946 229.043 308.946 228.901V228.09C308.946 227.947 308.831 227.832 308.689 227.832H306.995C306.852 227.832 306.737 227.947 306.737 228.09V228.901C306.737 229.043 306.852 229.158 306.995 229.158Z" fill="#3F3D56"/>
<path d="M302.576 229.158H304.27C304.413 229.158 304.528 229.043 304.528 228.901V228.09C304.528 227.947 304.413 227.832 304.27 227.832H302.576C302.434 227.832 302.319 227.947 302.319 228.09V228.901C302.319 229.043 302.434 229.158 302.576 229.158Z" fill="#3F3D56"/>
<path d="M298.158 229.158H299.852C299.995 229.158 300.11 229.043 300.11 228.901V228.09C300.11 227.947 299.995 227.832 299.852 227.832H298.158C298.016 227.832 297.901 227.947 297.901 228.09V228.901C297.901 229.043 298.016 229.158 298.158 229.158Z" fill="#3F3D56"/>
<path d="M293.74 229.158H295.434C295.576 229.158 295.691 229.043 295.691 228.901V228.09C295.691 227.947 295.576 227.832 295.434 227.832H293.74C293.598 227.832 293.482 227.947 293.482 228.09V228.901C293.482 229.043 293.598 229.158 293.74 229.158Z" fill="#3F3D56"/>
<path d="M289.321 229.158H291.015C291.158 229.158 291.273 229.043 291.273 228.901V228.09C291.273 227.947 291.158 227.832 291.015 227.832H289.321C289.179 227.832 289.064 227.947 289.064 228.09V228.901C289.064 229.043 289.179 229.158 289.321 229.158Z" fill="#3F3D56"/>
<path d="M284.903 229.158H286.597C286.739 229.158 286.854 229.043 286.854 228.901V228.09C286.854 227.947 286.739 227.832 286.597 227.832H284.903C284.761 227.832 284.645 227.947 284.645 228.09V228.901C284.645 229.043 284.761 229.158 284.903 229.158Z" fill="#3F3D56"/>
<path d="M280.484 229.158H282.179C282.321 229.158 282.436 229.043 282.436 228.901V228.09C282.436 227.947 282.321 227.832 282.179 227.832H280.484C280.342 227.832 280.227 227.947 280.227 228.09V228.901C280.227 229.043 280.342 229.158 280.484 229.158Z" fill="#3F3D56"/>
<path d="M276.066 229.158H277.761C277.903 229.158 278.018 229.043 278.018 228.901V228.09C278.018 227.947 277.903 227.832 277.761 227.832H276.066C275.924 227.832 275.809 227.947 275.809 228.09V228.901C275.809 229.043 275.924 229.158 276.066 229.158Z" fill="#3F3D56"/>
<path d="M271.648 229.158H273.342C273.484 229.158 273.6 229.043 273.6 228.901V228.09C273.6 227.947 273.484 227.832 273.342 227.832H271.648C271.506 227.832 271.39 227.947 271.39 228.09V228.901C271.39 229.043 271.506 229.158 271.648 229.158Z" fill="#3F3D56"/>
<path d="M267.229 229.158H268.924C269.066 229.158 269.181 229.043 269.181 228.901V228.09C269.181 227.947 269.066 227.832 268.924 227.832H267.229C267.087 227.832 266.972 227.947 266.972 228.09V228.901C266.972 229.043 267.087 229.158 267.229 229.158Z" fill="#3F3D56"/>
<path d="M262.811 229.158H264.505C264.647 229.158 264.763 229.043 264.763 228.901V228.09C264.763 227.947 264.647 227.832 264.505 227.832H262.811C262.669 227.832 262.554 227.947 262.554 228.09V228.901C262.554 229.043 262.669 229.158 262.811 229.158Z" fill="#3F3D56"/>
<path d="M329.139 231.369H330.833C330.975 231.369 331.09 231.253 331.09 231.111V230.3C331.09 230.158 330.975 230.042 330.833 230.042H329.139C328.996 230.042 328.881 230.158 328.881 230.3V231.111C328.881 231.253 328.996 231.369 329.139 231.369Z" fill="#3F3D56"/>
<path d="M324.72 231.369H326.414C326.557 231.369 326.672 231.253 326.672 231.111V230.3C326.672 230.158 326.557 230.042 326.414 230.042H324.72C324.578 230.042 324.463 230.158 324.463 230.3V231.111C324.463 231.253 324.578 231.369 324.72 231.369Z" fill="#3F3D56"/>
<path d="M320.302 231.369H321.996C322.138 231.369 322.253 231.253 322.253 231.111V230.3C322.253 230.158 322.138 230.042 321.996 230.042H320.302C320.16 230.042 320.044 230.158 320.044 230.3V231.111C320.044 231.253 320.16 231.369 320.302 231.369Z" fill="#3F3D56"/>
<path d="M315.884 231.369H317.578C317.72 231.369 317.835 231.253 317.835 231.111V230.3C317.835 230.158 317.72 230.042 317.578 230.042H315.884C315.742 230.042 315.626 230.158 315.626 230.3V231.111C315.626 231.253 315.742 231.369 315.884 231.369Z" fill="#3F3D56"/>
<path d="M311.465 231.369H313.16C313.302 231.369 313.417 231.253 313.417 231.111V230.3C313.417 230.158 313.302 230.042 313.16 230.042H311.465C311.323 230.042 311.208 230.158 311.208 230.3V231.111C311.208 231.253 311.323 231.369 311.465 231.369Z" fill="#3F3D56"/>
<path d="M307.047 231.369H308.741C308.883 231.369 308.999 231.253 308.999 231.111V230.3C308.999 230.158 308.883 230.042 308.741 230.042H307.047C306.905 230.042 306.789 230.158 306.789 230.3V231.111C306.789 231.253 306.905 231.369 307.047 231.369Z" fill="#3F3D56"/>
<path d="M302.628 231.369H304.323C304.465 231.369 304.58 231.253 304.58 231.111V230.3C304.58 230.158 304.465 230.042 304.323 230.042H302.628C302.486 230.042 302.371 230.158 302.371 230.3V231.111C302.371 231.253 302.486 231.369 302.628 231.369Z" fill="#3F3D56"/>
<path d="M298.21 231.369H299.904C300.046 231.369 300.162 231.253 300.162 231.111V230.3C300.162 230.158 300.046 230.042 299.904 230.042H298.21C298.068 230.042 297.952 230.158 297.952 230.3V231.111C297.952 231.253 298.068 231.369 298.21 231.369Z" fill="#3F3D56"/>
<path d="M293.792 231.369H295.486C295.628 231.369 295.744 231.253 295.744 231.111V230.3C295.744 230.158 295.628 230.042 295.486 230.042H293.792C293.65 230.042 293.534 230.158 293.534 230.3V231.111C293.534 231.253 293.65 231.369 293.792 231.369Z" fill="#3F3D56"/>
<path d="M289.374 231.369H291.068C291.21 231.369 291.325 231.253 291.325 231.111V230.3C291.325 230.158 291.21 230.042 291.068 230.042H289.374C289.231 230.042 289.116 230.158 289.116 230.3V231.111C289.116 231.253 289.231 231.369 289.374 231.369Z" fill="#3F3D56"/>
<path d="M284.955 231.369H286.649C286.791 231.369 286.907 231.253 286.907 231.111V230.3C286.907 230.158 286.791 230.042 286.649 230.042H284.955C284.813 230.042 284.698 230.158 284.698 230.3V231.111C284.698 231.253 284.813 231.369 284.955 231.369Z" fill="#3F3D56"/>
<path d="M280.537 231.369H282.231C282.373 231.369 282.488 231.253 282.488 231.111V230.3C282.488 230.158 282.373 230.042 282.231 230.042H280.537C280.394 230.042 280.279 230.158 280.279 230.3V231.111C280.279 231.253 280.394 231.369 280.537 231.369Z" fill="#3F3D56"/>
<path d="M276.119 231.369H277.813C277.955 231.369 278.07 231.253 278.07 231.111V230.3C278.07 230.158 277.955 230.042 277.813 230.042H276.119C275.976 230.042 275.861 230.158 275.861 230.3V231.111C275.861 231.253 275.976 231.369 276.119 231.369Z" fill="#3F3D56"/>
<path d="M271.7 231.369H273.394C273.537 231.369 273.652 231.253 273.652 231.111V230.3C273.652 230.158 273.537 230.042 273.394 230.042H271.7C271.558 230.042 271.443 230.158 271.443 230.3V231.111C271.443 231.253 271.558 231.369 271.7 231.369Z" fill="#3F3D56"/>
<path d="M267.282 231.369H268.976C269.118 231.369 269.233 231.253 269.233 231.111V230.3C269.233 230.158 269.118 230.042 268.976 230.042H267.282C267.139 230.042 267.024 230.158 267.024 230.3V231.111C267.024 231.253 267.139 231.369 267.282 231.369Z" fill="#3F3D56"/>
<path d="M262.863 231.369H264.557C264.7 231.369 264.815 231.253 264.815 231.111V230.3C264.815 230.158 264.7 230.042 264.557 230.042H262.863C262.721 230.042 262.606 230.158 262.606 230.3V231.111C262.606 231.253 262.721 231.369 262.863 231.369Z" fill="#3F3D56"/>
<path d="M292.466 234.021H309.625C309.767 234.021 309.882 233.906 309.882 233.763V232.953C309.882 232.81 309.767 232.695 309.625 232.695H292.466C292.324 232.695 292.209 232.81 292.209 232.953V233.763C292.209 233.906 292.324 234.021 292.466 234.021Z" fill="#3F3D56"/>
<path d="M274.288 189.318H272.788C272.333 189.318 271.964 189.687 271.964 190.142C271.964 190.597 272.333 190.965 272.788 190.965H274.288C274.742 190.965 275.111 190.597 275.111 190.142C275.111 189.687 274.742 189.318 274.288 189.318Z" fill="white"/>
<path d="M291.441 189.318H289.942C289.487 189.318 289.118 189.687 289.118 190.142C289.118 190.597 289.487 190.965 289.942 190.965H291.441C291.896 190.965 292.265 190.597 292.265 190.142C292.265 189.687 291.896 189.318 291.441 189.318Z" fill="white"/>
<path d="M296.302 189.318H294.802C294.347 189.318 293.979 189.687 293.979 190.142C293.979 190.597 294.347 190.965 294.802 190.965H296.302C296.757 190.965 297.125 190.597 297.125 190.142C297.125 189.687 296.757 189.318 296.302 189.318Z" fill="white"/>
<path d="M286.776 189.18H277.454C276.999 189.18 276.63 189.549 276.63 190.004C276.63 190.459 276.999 190.828 277.454 190.828H286.776C287.23 190.828 287.599 190.459 287.599 190.004C287.599 189.549 287.23 189.18 286.776 189.18Z" fill="white"/>
<path d="M309.647 189.18H300.325C299.871 189.18 299.502 189.549 299.502 190.004C299.502 190.459 299.871 190.828 300.325 190.828H309.647C310.102 190.828 310.471 190.459 310.471 190.004C310.471 189.549 310.102 189.18 309.647 189.18Z" fill="white"/>
<path d="M278.862 193.037H277.362C276.907 193.037 276.539 193.405 276.539 193.86C276.539 194.315 276.907 194.684 277.362 194.684H278.862C279.317 194.684 279.685 194.315 279.685 193.86C279.685 193.405 279.317 193.037 278.862 193.037Z" fill="white"/>
<path d="M296.016 193.037H294.516C294.061 193.037 293.692 193.405 293.692 193.86C293.692 194.315 294.061 194.684 294.516 194.684H296.016C296.47 194.684 296.839 194.315 296.839 193.86C296.839 193.405 296.47 193.037 296.016 193.037Z" fill="white"/>
<path d="M300.876 193.037H299.376C298.921 193.037 298.553 193.405 298.553 193.86C298.553 194.315 298.921 194.684 299.376 194.684H300.876C301.331 194.684 301.699 194.315 301.699 193.86C301.699 193.405 301.331 193.037 300.876 193.037Z" fill="white"/>
<path d="M291.35 192.899H282.028C281.573 192.899 281.205 193.268 281.205 193.723C281.205 194.178 281.573 194.547 282.028 194.547H291.35C291.805 194.547 292.173 194.178 292.173 193.723C292.173 193.268 291.805 192.899 291.35 192.899Z" fill="white"/>
<path d="M314.221 192.899H304.9C304.445 192.899 304.076 193.268 304.076 193.723C304.076 194.178 304.445 194.547 304.9 194.547H314.221C314.676 194.547 315.045 194.178 315.045 193.723C315.045 193.268 314.676 192.899 314.221 192.899Z" fill="white"/>
<path d="M283.436 196.755H281.936C281.481 196.755 281.113 197.124 281.113 197.579C281.113 198.034 281.481 198.403 281.936 198.403H283.436C283.891 198.403 284.259 198.034 284.259 197.579C284.259 197.124 283.891 196.755 283.436 196.755Z" fill="white"/>
<path d="M300.59 196.755H299.09C298.636 196.755 298.267 197.124 298.267 197.579C298.267 198.034 298.636 198.403 299.09 198.403H300.59C301.045 198.403 301.414 198.034 301.414 197.579C301.414 197.124 301.045 196.755 300.59 196.755Z" fill="white"/>
<path d="M305.451 196.755H303.951C303.496 196.755 303.127 197.124 303.127 197.579C303.127 198.034 303.496 198.403 303.951 198.403H305.451C305.905 198.403 306.274 198.034 306.274 197.579C306.274 197.124 305.905 196.755 305.451 196.755Z" fill="white"/>
<path d="M295.924 196.618H286.602C286.147 196.618 285.779 196.987 285.779 197.442C285.779 197.897 286.147 198.266 286.602 198.266H295.924C296.379 198.266 296.747 197.897 296.747 197.442C296.747 196.987 296.379 196.618 295.924 196.618Z" fill="white"/>
<path d="M318.796 196.618H309.474C309.02 196.618 308.651 196.987 308.651 197.442C308.651 197.897 309.02 198.266 309.474 198.266H318.796C319.251 198.266 319.62 197.897 319.62 197.442C319.62 196.987 319.251 196.618 318.796 196.618Z" fill="white"/>
<path d="M288.011 200.474H286.511C286.056 200.474 285.688 200.843 285.688 201.298C285.688 201.753 286.056 202.122 286.511 202.122H288.011C288.465 202.122 288.834 201.753 288.834 201.298C288.834 200.843 288.465 200.474 288.011 200.474Z" fill="white"/>
<path d="M305.165 200.474H303.665C303.21 200.474 302.841 200.843 302.841 201.298C302.841 201.753 303.21 202.122 303.665 202.122H305.165C305.619 202.122 305.988 201.753 305.988 201.298C305.988 200.843 305.619 200.474 305.165 200.474Z" fill="white"/>
<path d="M310.025 200.474H308.525C308.07 200.474 307.702 200.843 307.702 201.298C307.702 201.753 308.07 202.122 308.525 202.122H310.025C310.48 202.122 310.848 201.753 310.848 201.298C310.848 200.843 310.48 200.474 310.025 200.474Z" fill="white"/>
<path d="M300.499 200.337H291.177C290.722 200.337 290.354 200.706 290.354 201.161C290.354 201.616 290.722 201.984 291.177 201.984H300.499C300.954 201.984 301.322 201.616 301.322 201.161C301.322 200.706 300.954 200.337 300.499 200.337Z" fill="white"/>
<path d="M291.441 215.261H289.942C289.487 215.261 289.118 215.63 289.118 216.085C289.118 216.54 289.487 216.909 289.942 216.909H291.441C291.896 216.909 292.265 216.54 292.265 216.085C292.265 215.63 291.896 215.261 291.441 215.261Z" fill="white"/>
<path d="M296.302 215.261H294.802C294.347 215.261 293.979 215.63 293.979 216.085C293.979 216.54 294.347 216.909 294.802 216.909H296.302C296.757 216.909 297.125 216.54 297.125 216.085C297.125 215.63 296.757 215.261 296.302 215.261Z" fill="white"/>
<path d="M309.647 215.399H300.325C299.871 215.399 299.502 215.768 299.502 216.223C299.502 216.678 299.871 217.047 300.325 217.047H309.647C310.102 217.047 310.471 216.678 310.471 216.223C310.471 215.768 310.102 215.399 309.647 215.399Z" fill="white"/>
<path d="M274.288 215.261H272.788C272.333 215.261 271.964 215.63 271.964 216.085C271.964 216.54 272.333 216.909 272.788 216.909H274.288C274.742 216.909 275.111 216.54 275.111 216.085C275.111 215.63 274.742 215.261 274.288 215.261Z" fill="white"/>
<path d="M286.776 215.399H277.454C276.999 215.399 276.63 215.768 276.63 216.223C276.63 216.678 276.999 217.047 277.454 217.047H286.776C287.23 217.047 287.599 216.678 287.599 216.223C287.599 215.768 287.23 215.399 286.776 215.399Z" fill="white"/>
<path d="M278.862 211.543H277.362C276.907 211.543 276.539 211.912 276.539 212.367C276.539 212.822 276.907 213.19 277.362 213.19H278.862C279.317 213.19 279.685 212.822 279.685 212.367C279.685 211.912 279.317 211.543 278.862 211.543Z" fill="white"/>
<path d="M296.016 211.543H294.516C294.061 211.543 293.692 211.912 293.692 212.367C293.692 212.822 294.061 213.19 294.516 213.19H296.016C296.47 213.19 296.839 212.822 296.839 212.367C296.839 211.912 296.47 211.543 296.016 211.543Z" fill="white"/>
<path d="M300.876 211.543H299.376C298.921 211.543 298.553 211.912 298.553 212.367C298.553 212.822 298.921 213.19 299.376 213.19H300.876C301.331 213.19 301.699 212.822 301.699 212.367C301.699 211.912 301.331 211.543 300.876 211.543Z" fill="white"/>
<path d="M291.35 211.68H282.028C281.573 211.68 281.205 212.049 281.205 212.504C281.205 212.959 281.573 213.328 282.028 213.328H291.35C291.805 213.328 292.173 212.959 292.173 212.504C292.173 212.049 291.805 211.68 291.35 211.68Z" fill="white"/>
<path d="M283.436 207.824H281.936C281.481 207.824 281.113 208.193 281.113 208.648C281.113 209.103 281.481 209.472 281.936 209.472H283.436C283.891 209.472 284.259 209.103 284.259 208.648C284.259 208.193 283.891 207.824 283.436 207.824Z" fill="white"/>
<path d="M300.59 207.824H299.09C298.636 207.824 298.267 208.193 298.267 208.648C298.267 209.103 298.636 209.472 299.09 209.472H300.59C301.045 209.472 301.414 209.103 301.414 208.648C301.414 208.193 301.045 207.824 300.59 207.824Z" fill="white"/>
<path d="M305.451 207.824H303.951C303.496 207.824 303.127 208.193 303.127 208.648C303.127 209.103 303.496 209.472 303.951 209.472H305.451C305.905 209.472 306.274 209.103 306.274 208.648C306.274 208.193 305.905 207.824 305.451 207.824Z" fill="white"/>
<path d="M295.924 207.961H286.602C286.147 207.961 285.779 208.33 285.779 208.785C285.779 209.24 286.147 209.609 286.602 209.609H295.924C296.379 209.609 296.747 209.24 296.747 208.785C296.747 208.33 296.379 207.961 295.924 207.961Z" fill="white"/>
<path d="M288.011 204.105H286.511C286.056 204.105 285.688 204.474 285.688 204.929C285.688 205.384 286.056 205.753 286.511 205.753H288.011C288.465 205.753 288.834 205.384 288.834 204.929C288.834 204.474 288.465 204.105 288.011 204.105Z" fill="white"/>
<path d="M305.165 204.105H303.665C303.21 204.105 302.841 204.474 302.841 204.929C302.841 205.384 303.21 205.753 303.665 205.753H305.165C305.619 205.753 305.988 205.384 305.988 204.929C305.988 204.474 305.619 204.105 305.165 204.105Z" fill="white"/>
<path d="M310.025 204.105H308.525C308.07 204.105 307.702 204.474 307.702 204.929C307.702 205.384 308.07 205.753 308.525 205.753H310.025C310.48 205.753 310.848 205.384 310.848 204.929C310.848 204.474 310.48 204.105 310.025 204.105Z" fill="white"/>
<path d="M300.499 204.243H291.177C290.722 204.243 290.354 204.611 290.354 205.066C290.354 205.521 290.722 205.89 291.177 205.89H300.499C300.954 205.89 301.322 205.521 301.322 205.066C301.322 204.611 300.954 204.243 300.499 204.243Z" fill="white"/>
<path d="M266.314 258.844L259.272 247.708L281.373 230.08L290.495 219.968C291.681 218.654 293.19 217.675 294.872 217.127C296.554 216.58 298.35 216.484 300.081 216.849C301.811 217.213 303.416 218.026 304.735 219.206C306.053 220.386 307.039 221.891 307.594 223.571C308.416 226.062 308.239 228.774 307.101 231.136C305.962 233.498 303.951 235.326 301.491 236.232L287.067 241.549L266.314 258.844Z" fill="#FFB6B6"/>
<path d="M101.105 178.1V232.225H139.002V178.1C139.002 177.711 138.878 177.332 138.647 177.018C138.417 176.705 138.092 176.474 137.72 176.359C137.545 176.301 137.361 176.272 137.177 176.274H102.935C102.695 176.274 102.457 176.321 102.235 176.412C102.014 176.504 101.812 176.638 101.642 176.808C101.472 176.977 101.337 177.179 101.245 177.4C101.153 177.622 101.105 177.86 101.105 178.1ZM115.894 196.698C115.904 195.63 116.335 194.611 117.092 193.86C117.85 193.109 118.873 192.687 119.94 192.687C121.006 192.687 122.03 193.109 122.787 193.86C123.545 194.611 123.975 195.63 123.985 196.698V202.978C123.98 204.048 123.551 205.072 122.793 205.826C122.035 206.581 121.009 207.005 119.94 207.005C118.87 207.005 117.845 206.581 117.087 205.826C116.328 205.072 115.9 204.048 115.894 202.978V196.698Z" fill="#2F2E41"/>
<path d="M100.989 230.494V235.713C100.99 235.983 101.097 236.242 101.288 236.434C101.478 236.626 101.737 236.734 102.007 236.737H138.099C138.37 236.735 138.629 236.627 138.82 236.435C139.01 236.243 139.117 235.984 139.117 235.713V230.494H100.989Z" fill="#3F3D56"/>
<path d="M41.4883 96.5547V195.378C41.4893 196.638 41.9897 197.845 42.8797 198.736C43.7697 199.626 44.9766 200.127 46.2352 200.128H192.6C193.858 200.127 195.065 199.626 195.955 198.736C196.845 197.845 197.346 196.638 197.347 195.378V96.5547C197.344 95.2965 196.842 94.0907 195.953 93.2014C195.063 92.3122 193.857 91.812 192.6 91.8104H46.2352C44.9777 91.812 43.772 92.3122 42.8823 93.2014C41.9925 94.0907 41.4913 95.2965 41.4883 96.5547Z" fill="#3F3D56"/>
<path d="M44.9219 97.7843V194.159C44.923 194.832 45.1907 195.477 45.6662 195.953C46.1417 196.429 46.7864 196.696 47.4589 196.698H191.381C192.054 196.696 192.698 196.429 193.174 195.953C193.649 195.477 193.917 194.832 193.918 194.159V97.7843C193.918 97.1106 193.651 96.4644 193.175 95.9876C192.7 95.5107 192.055 95.2421 191.381 95.2406H47.4589C46.7855 95.2421 46.1403 95.5107 45.6647 95.9876C45.1891 96.4644 44.9219 97.1106 44.9219 97.7843Z" fill="white"/>
<path d="M71.6316 236.383C71.7781 236.567 71.9643 236.715 72.1762 236.817C72.3882 236.918 72.6203 236.97 72.8553 236.969H158.48C158.714 236.969 158.945 236.916 159.156 236.815C159.368 236.714 159.554 236.568 159.702 236.386C159.849 236.204 159.954 235.991 160.009 235.763C160.064 235.536 160.068 235.298 160.02 235.069L158.691 228.752C158.636 228.494 158.517 228.255 158.346 228.055C158.174 227.855 157.956 227.701 157.71 227.607C157.532 227.537 157.342 227.501 157.151 227.501H74.1791C73.9878 227.501 73.7982 227.537 73.6201 227.607C73.374 227.701 73.1554 227.855 72.984 228.055C72.8127 228.255 72.6941 228.494 72.639 228.752L71.3099 235.069C71.2626 235.298 71.2669 235.535 71.3226 235.762C71.3782 235.99 71.4838 236.202 71.6316 236.383Z" fill="#2F2E41"/>
<path d="M186.71 108.517H52.0428C51.9028 108.514 51.7696 108.456 51.6717 108.356C51.5739 108.255 51.519 108.121 51.519 107.981C51.519 107.841 51.5739 107.706 51.6717 107.606C51.7696 107.506 51.9028 107.448 52.0428 107.445H186.71C186.85 107.448 186.984 107.506 187.082 107.606C187.179 107.706 187.234 107.841 187.234 107.981C187.234 108.121 187.179 108.255 187.082 108.356C186.984 108.456 186.85 108.514 186.71 108.517Z" fill="#3F3D56"/>
<path d="M61.2103 104.709C62.9436 104.709 64.3488 103.272 64.3488 101.499C64.3488 99.726 62.9436 98.2887 61.2103 98.2887C59.4769 98.2887 58.0718 99.726 58.0718 101.499C58.0718 103.272 59.4769 104.709 61.2103 104.709Z" fill="#3F3D56"/>
<path d="M72.0521 104.709C73.7854 104.709 75.1906 103.272 75.1906 101.499C75.1906 99.726 73.7854 98.2887 72.0521 98.2887C70.3187 98.2887 68.9136 99.726 68.9136 101.499C68.9136 103.272 70.3187 104.709 72.0521 104.709Z" fill="#3F3D56"/>
<path d="M82.8943 104.709C84.6277 104.709 86.0328 103.272 86.0328 101.499C86.0328 99.726 84.6277 98.2887 82.8943 98.2887C81.161 98.2887 79.7559 99.726 79.7559 101.499C79.7559 103.272 81.161 104.709 82.8943 104.709Z" fill="#3F3D56"/>
<path d="M180.182 99.0826H172.482C172.329 99.0861 172.184 99.1491 172.078 99.2581C171.972 99.3671 171.912 99.5134 171.912 99.6657C171.912 99.8181 171.972 99.9644 172.078 100.073C172.184 100.182 172.329 100.245 172.482 100.249H180.182C180.335 100.247 180.481 100.184 180.589 100.075C180.697 99.9661 180.757 99.819 180.757 99.6657C180.757 99.5125 180.697 99.3654 180.589 99.2563C180.481 99.1471 180.335 99.0847 180.182 99.0826Z" fill="#9F101C"/>
<path d="M180.182 101.273H172.481C172.329 101.276 172.184 101.339 172.077 101.448C171.971 101.557 171.911 101.703 171.911 101.856C171.911 102.008 171.971 102.155 172.077 102.264C172.184 102.373 172.329 102.436 172.481 102.439H180.182C180.335 102.437 180.482 102.375 180.589 102.266C180.697 102.157 180.758 102.009 180.758 101.856C180.758 101.702 180.697 101.555 180.589 101.446C180.482 101.337 180.335 101.274 180.182 101.273Z" fill="#9F101C"/>
<path d="M180.182 103.463H172.482C172.329 103.466 172.184 103.529 172.078 103.638C171.972 103.747 171.912 103.894 171.912 104.046C171.912 104.198 171.972 104.345 172.078 104.453C172.184 104.562 172.329 104.625 172.482 104.629H180.182C180.335 104.627 180.481 104.564 180.589 104.455C180.697 104.346 180.757 104.199 180.757 104.046C180.757 103.893 180.697 103.746 180.589 103.636C180.481 103.527 180.335 103.465 180.182 103.463Z" fill="#9F101C"/>
<path d="M365.83 232.784C366.062 233.461 366.503 234.047 367.089 234.458C367.675 234.868 368.376 235.083 369.091 235.07L383.064 234.71C383.784 234.696 384.481 234.449 385.05 234.006C385.618 233.563 386.028 232.948 386.218 232.252L388.196 211.097C388.897 211.415 389.661 211.572 390.431 211.557C391.1 211.54 391.759 211.391 392.371 211.12C392.982 210.848 393.534 210.458 393.996 209.973C394.457 209.488 394.818 208.917 395.058 208.292C395.299 207.667 395.414 207.001 395.397 206.332C395.38 205.662 395.232 205.003 394.961 204.391C394.689 203.779 394.3 203.226 393.815 202.765C393.33 202.304 392.759 201.942 392.134 201.702C391.51 201.461 390.844 201.346 390.175 201.363C389.867 201.362 389.56 201.394 389.259 201.458C388.932 201.104 388.534 200.822 388.092 200.631C387.649 200.439 387.171 200.343 386.689 200.348L365.195 200.903C365.017 200.91 364.84 200.932 364.665 200.969C364.194 201.057 363.747 201.245 363.354 201.52C362.961 201.796 362.632 202.152 362.389 202.565C362.145 202.978 361.993 203.439 361.942 203.916C361.891 204.393 361.944 204.875 362.095 205.331L365.83 232.784ZM388.601 209.661L390.008 204.619C390.168 204.037 390.172 203.423 390.019 202.838C390.087 202.838 390.147 202.806 390.216 202.806C391.18 202.786 392.114 203.149 392.811 203.817C393.508 204.484 393.912 205.401 393.935 206.366C393.958 207.332 393.597 208.266 392.931 208.966C392.266 209.665 391.351 210.072 390.386 210.097C389.763 210.117 389.145 209.966 388.601 209.661Z" fill="#2F2E41"/>
<path d="M364.665 200.969C365.123 203.589 370.271 205.431 376.462 205.11C382.154 204.848 386.809 202.848 387.661 200.478C387.346 200.384 387.018 200.341 386.689 200.348L365.195 200.903C365.017 200.91 364.84 200.932 364.665 200.969Z" fill="#3F3D56"/>
<path d="M380.488 223.988C380.518 223.977 380.547 223.959 380.574 223.934L383.87 220.898C383.91 220.862 383.943 220.812 383.965 220.753C383.988 220.694 384 220.628 384 220.561C384 220.495 383.988 220.429 383.966 220.37C383.943 220.311 383.91 220.261 383.87 220.224L380.444 217.067C380.413 217.038 380.378 217.017 380.341 217.007C380.304 216.997 380.266 216.998 380.229 217.008C380.192 217.019 380.157 217.04 380.125 217.07C380.094 217.099 380.068 217.138 380.047 217.182C380.026 217.226 380.012 217.276 380.005 217.328C379.998 217.38 379.998 217.434 380.006 217.486C380.014 217.538 380.029 217.587 380.05 217.631C380.072 217.674 380.099 217.712 380.13 217.741L383.19 220.561L380.26 223.26C380.204 223.312 380.162 223.391 380.143 223.482C380.123 223.574 380.128 223.672 380.155 223.759C380.182 223.846 380.231 223.917 380.291 223.959C380.352 224.001 380.422 224.011 380.488 223.988Z" fill="#9F101C"/>
<path d="M373.729 223.988C373.798 223.968 373.861 223.925 373.909 223.866C373.956 223.806 373.987 223.731 373.997 223.652C374.006 223.572 373.995 223.491 373.963 223.419C373.932 223.347 373.882 223.287 373.82 223.247L370.013 220.796L373.692 217.726C373.73 217.695 373.762 217.655 373.786 217.61C373.81 217.564 373.826 217.514 373.833 217.462C373.84 217.409 373.838 217.356 373.826 217.305C373.815 217.253 373.794 217.205 373.766 217.163C373.738 217.12 373.703 217.084 373.662 217.057C373.622 217.03 373.577 217.012 373.531 217.004C373.484 216.997 373.437 216.999 373.391 217.012C373.345 217.025 373.302 217.048 373.264 217.079L369.145 220.516C369.097 220.556 369.059 220.609 369.034 220.669C369.009 220.73 368.997 220.797 369.001 220.864C369.004 220.93 369.022 220.995 369.054 221.052C369.085 221.109 369.129 221.156 369.18 221.189L373.462 223.947C373.543 223.999 373.639 224.013 373.729 223.988Z" fill="#9F101C"/>
<path d="M379.753 225.988C379.784 225.979 379.815 225.964 379.842 225.944C379.879 225.918 379.911 225.884 379.937 225.843C379.962 225.803 379.98 225.757 379.991 225.708C380.001 225.66 380.003 225.609 379.996 225.56C379.99 225.51 379.975 225.462 379.952 225.42L374.608 215.183C374.562 215.096 374.489 215.034 374.405 215.011C374.32 214.987 374.231 215.003 374.157 215.056C374.083 215.108 374.03 215.193 374.009 215.291C373.989 215.39 374.003 215.494 374.048 215.58L379.392 225.817C379.429 225.887 379.483 225.941 379.548 225.972C379.613 226.003 379.685 226.008 379.753 225.988Z" fill="#9F101C"/>
<path d="M135.467 137.647H112.159C111.208 137.647 110.438 138.419 110.438 139.37V141.648C110.438 142.6 111.208 143.371 112.159 143.371H135.467C136.418 143.371 137.189 142.6 137.189 141.648V139.37C137.189 138.419 136.418 137.647 135.467 137.647Z" fill="#9F101C"/>
<path d="M149.053 149.095H98.5732C97.6224 149.095 96.8516 149.866 96.8516 150.817V153.096C96.8516 154.047 97.6224 154.818 98.5732 154.818H149.053C150.004 154.818 150.775 154.047 150.775 153.096V150.817C150.775 149.866 150.004 149.095 149.053 149.095Z" fill="#E6E6E6"/>
<path d="M149.053 160.542H98.5732C97.6224 160.542 96.8516 161.313 96.8516 162.265V164.543C96.8516 165.494 97.6224 166.266 98.5732 166.266H149.053C150.004 166.266 150.775 165.494 150.775 164.543V162.265C150.775 161.313 150.004 160.542 149.053 160.542Z" fill="#E6E6E6"/>
<path d="M153.333 198.874L153.447 199.236L153.453 199.248L156.894 209.717L160.854 221.781L168.302 244.454L168.375 247.975V247.987L168.928 276.319L167.394 280.159L169.121 286.457C169.121 286.457 168.327 276.938 164.067 282.404C161.654 285.511 158.832 288.689 156.515 291.669C159.891 293.036 163.321 294.272 166.804 295.378C167.556 295.619 168.315 295.847 169.073 296.076C169.235 296.124 169.398 296.172 169.56 296.221C181.108 299.638 193.047 301.558 205.083 301.934C205.709 301.952 206.323 301.964 206.919 301.976C207.129 301.982 207.334 301.988 207.538 301.988C208.212 301.994 208.88 302 209.554 302C210.914 302 212.268 301.98 213.615 301.94C223.591 301.659 233.508 300.316 243.2 297.936C243.134 293.933 242.954 289.255 242.695 284.258C242.575 281.808 239.873 279.153 239.71 276.589C239.596 274.662 242.021 272.85 241.895 270.894C241.076 258.847 240.053 263.471 239.295 254.941C239.217 254.104 239.145 253.303 239.079 252.539C238.591 247.06 238.254 243.635 238.254 243.635L241.492 223.22L246.576 191.169L246.185 190.524L245.745 190.308L218.928 177.027L217.472 173.295C217.048 172.219 216.312 171.296 215.359 170.642C214.405 169.989 213.279 169.636 212.123 169.628L194.458 169.556C193.541 169.552 192.636 169.767 191.819 170.182C191.002 170.598 190.295 171.203 189.759 171.946L184.975 178.574L153.333 198.874Z" fill="#3F3D56"/>
<path d="M172.376 239.409L168.375 247.975L165.643 253.827L160.944 278.444L158.591 280.942L156.576 272.098L135.479 276.784C134.787 272.937 135.294 276.915 134.867 272.694C134.987 272.574 135.113 272.454 135.24 272.333C135.577 272.02 135.859 271.725 135.853 271.442C135.613 256.885 136.335 232.112 142.364 217.104C143.308 214.653 144.553 212.33 146.07 210.186C146.19 210.024 146.305 209.861 146.419 209.699C149.199 205.804 150.956 201.969 153.447 199.242V199.236C153.462 199.223 153.476 199.209 153.489 199.194C153.498 199.189 153.506 199.183 153.513 199.175L170.625 190.097L171.359 210.734L171.882 225.568L172.376 239.409Z" fill="#3F3D56"/>
<path d="M234.079 241.842L239.077 252.542L240.821 256.268L245.519 280.882L247.864 283.375L249.884 274.532L250.833 274.337L267.953 270.79L272.943 286.646C274.068 284.771 274.511 282.565 274.197 280.401C273.884 278.237 272.833 276.248 271.223 274.769C270.882 274.461 270.598 274.16 270.606 273.876C270.89 256.755 269.844 225.492 260.391 212.624C257.389 208.541 255.588 204.474 252.967 201.632C252.959 201.624 252.959 201.616 252.951 201.616L246.574 191.168L246.184 190.527L245.746 190.307L234.079 241.842Z" fill="#3F3D56"/>
<path d="M203.801 164.526C216.78 164.526 227.302 153.998 227.302 141.011C227.302 128.024 216.78 117.496 203.801 117.496C190.821 117.496 180.299 128.024 180.299 141.011C180.299 153.998 190.821 164.526 203.801 164.526Z" fill="#FFB6B6"/>
<path d="M235.566 124.586C235.384 124.391 235.165 124.235 234.921 124.127C234.677 124.019 234.414 123.962 234.148 123.958L234.501 122.976C234.616 122.667 234.647 122.333 234.591 122.008C234.535 121.682 234.393 121.378 234.181 121.126C233.968 120.873 233.692 120.682 233.382 120.571C233.071 120.461 232.736 120.435 232.412 120.496L231.125 120.744L231.247 119.884C231.293 119.563 231.256 119.236 231.138 118.935C231.019 118.634 230.825 118.368 230.573 118.165C230.322 117.961 230.021 117.827 229.702 117.775C229.383 117.723 229.055 117.755 228.752 117.868C228.476 117.976 228.179 118.022 227.884 118.001C227.588 117.98 227.301 117.893 227.043 117.746C226.784 117.604 226.56 117.407 226.385 117.17C226.21 116.932 226.089 116.658 226.03 116.369L225.582 114.205L225.535 114.089C223.351 110.448 219.153 107.799 214.015 106.827C209.442 105.957 204.753 106.4 200.233 106.817C198.44 106.986 196.415 107.176 194.727 108.21C193.292 109.097 192.079 110.87 192.327 112.659C187.87 111.292 183.091 114.021 180.723 117.461C177.917 121.557 177.458 126.686 177.385 130.697C177.184 140.186 179.141 147.949 183.186 153.775C183.482 154.197 183.556 155.078 184.141 155.374L184.02 155.179C184.674 155.506 185.338 156.033 185.09 156.598C184.378 158.224 189.11 161.817 192.443 163.005C198.524 165.174 206.61 164.989 212.296 164.208L212.496 162.862C214.548 162.583 215.993 162.05 216.399 161.216C217.117 160.604 217.728 160.055 218.261 159.548L218.266 159.543C218.277 159.532 218.298 159.516 218.309 159.506C220.877 157.041 221.473 155.638 221.742 153.5C222.001 151.405 221.542 149.278 221.072 147.363C230.957 148.893 217.18 136.829 226.389 134.497C226.495 134.464 226.602 134.438 226.711 134.417C226.98 134.354 227.249 134.291 227.507 134.217C228.753 133.879 229.946 133.369 231.052 132.702C233.625 131.135 234.475 129.056 235.804 126.713C235.996 126.379 236.076 125.993 236.033 125.61C235.991 125.228 235.827 124.869 235.566 124.586Z" fill="#2F2E41"/>
<path d="M286.923 243.516C286.918 244.44 286.907 245.732 286.865 247.332C286.86 247.553 286.854 247.78 286.849 248.012C286.781 250.952 286.712 253.416 286.601 256.155C286.596 256.345 286.591 256.53 286.58 256.72C286.432 260.541 286.2 264.989 285.8 272.035C285.056 285.049 283.758 273.824 282.456 278.389C282.392 278.616 282.324 278.885 282.26 279.201C282.063 280.35 281.73 281.472 281.269 282.542C280.578 282.954 279.866 283.349 279.164 283.745C277.165 284.859 275.135 285.93 273.088 286.949C271.938 287.518 270.783 288.078 269.623 288.616C269.438 288.701 269.259 288.785 269.08 288.864C263.138 291.614 257.014 293.952 250.751 295.862C249.528 296.231 248.309 296.59 247.075 296.923C245.788 297.282 244.501 297.619 243.198 297.936C233.507 300.317 223.59 301.659 213.614 301.941C212.269 301.984 210.914 302 209.553 302C208.878 302 208.213 301.994 207.538 301.989C207.332 301.989 207.127 301.984 206.921 301.978C206.325 301.963 205.708 301.952 205.086 301.936C193.049 301.561 181.11 299.64 169.562 296.221L169.072 296.078C168.312 295.846 167.558 295.619 166.804 295.376C163.323 294.273 159.893 293.039 156.514 291.672C153.934 290.632 151.385 289.517 148.866 288.326C148.843 288.32 148.821 288.309 148.802 288.294C148.275 288.051 147.742 287.798 147.215 287.54C147.146 287.503 147.072 287.466 146.999 287.429C145.031 286.468 143.085 285.462 141.16 284.41C139.541 280.69 137.262 279.977 135.849 276.705C135.437 275.733 135.14 274.717 134.962 273.676C134.962 273.665 134.957 273.655 134.957 273.639C135.105 275.602 134.329 270.156 134.952 273.618C134.947 273.555 134.941 273.486 134.936 273.407C134.92 273.217 134.899 272.985 134.868 272.694C133.058 255.021 133.174 234.808 132.389 218.153C132.336 217.077 132.281 216.046 132.225 215.061C132.209 214.733 132.188 214.411 132.167 214.095C132.204 214 132.246 213.9 132.294 213.805C132.304 213.777 132.316 213.751 132.33 213.725C132.346 213.693 132.364 213.661 132.383 213.63C132.394 213.615 132.41 213.593 132.42 213.578C132.428 213.56 132.437 213.542 132.447 213.525C132.494 213.451 132.547 213.372 132.605 213.298C132.631 213.266 132.652 213.24 132.679 213.213C132.697 213.187 132.718 213.162 132.742 213.14C132.758 213.114 132.778 213.091 132.8 213.071C132.821 213.05 132.842 213.024 132.868 212.997C132.88 212.981 132.894 212.966 132.911 212.955C132.952 212.907 132.998 212.863 133.048 212.823C133.236 212.65 133.437 212.491 133.649 212.348C133.723 212.301 133.802 212.253 133.876 212.2C134.407 211.882 134.967 211.614 135.548 211.398C135.748 211.324 135.949 211.256 136.165 211.182C136.244 211.161 136.318 211.134 136.397 211.108C136.513 211.071 136.629 211.034 136.75 211.008C137.352 210.828 138 210.675 138.702 210.533C138.786 210.517 138.876 210.501 138.966 210.48C139.092 210.453 139.224 210.432 139.356 210.411C139.535 210.38 139.72 210.348 139.905 210.316C141.471 210.068 143.249 209.884 145.211 209.762C145.395 209.752 145.58 209.741 145.764 209.73C145.981 209.72 146.197 209.709 146.418 209.699C146.603 209.688 146.793 209.683 146.983 209.678C147.167 209.667 147.357 209.662 147.552 209.657C148.085 209.641 148.634 209.625 149.193 209.614C150.786 209.583 152.463 209.593 154.225 209.63C155.042 209.651 155.875 209.672 156.73 209.709C156.788 209.709 156.841 209.715 156.893 209.715C157.637 209.741 158.386 209.773 159.156 209.815C159.694 209.841 160.237 209.868 160.781 209.899C161.292 209.931 161.809 209.963 162.331 210C162.737 210.021 163.143 210.052 163.555 210.079C163.903 210.105 164.251 210.132 164.599 210.153L165.074 210.184C165.332 210.205 165.591 210.221 165.855 210.248C166.435 210.295 167.015 210.343 167.606 210.39C168.191 210.443 168.787 210.496 169.383 210.548C169.979 210.601 170.58 210.659 171.182 210.717C171.245 210.723 171.303 210.728 171.361 210.733C171.91 210.791 172.458 210.844 173.012 210.902C173.138 210.913 173.27 210.923 173.397 210.939C173.925 210.992 174.463 211.054 174.996 211.111C175.16 211.128 175.322 211.146 175.486 211.164C175.904 211.209 176.315 211.248 176.736 211.298C177.289 211.361 177.854 211.419 178.402 211.493C178.83 211.541 179.257 211.588 179.684 211.641C180.354 211.72 181.034 211.804 181.715 211.894C181.973 211.926 182.231 211.957 182.49 211.994C184.431 212.237 186.393 212.506 188.387 212.786C191.409 213.214 194.479 213.678 197.569 214.179C200.666 214.681 203.779 215.21 206.91 215.768C207.702 215.91 208.493 216.053 209.289 216.2C209.648 216.269 210.006 216.338 210.365 216.406C210.977 216.517 211.589 216.633 212.201 216.749C212.812 216.865 213.424 216.981 214.036 217.103C214.764 217.245 215.497 217.388 216.225 217.53C221.019 218.48 225.787 219.494 230.439 220.554C231.204 220.728 231.969 220.908 232.729 221.082C234.248 221.436 235.753 221.794 237.243 222.159C237.655 222.254 238.061 222.354 238.467 222.454C239.48 222.707 240.492 222.961 241.489 223.219L241.663 223.267C242.397 223.446 243.114 223.631 243.831 223.821C245.524 224.264 247.189 224.713 248.826 225.167C249.913 225.467 250.987 225.772 252.049 226.08C253.636 226.539 255.192 227.003 256.706 227.473C257.08 227.589 257.455 227.705 257.824 227.816C258.932 228.159 260.024 228.507 261.084 228.856C261.928 229.13 262.75 229.41 263.563 229.689C264.375 229.969 265.171 230.249 265.952 230.528C266.453 230.708 266.949 230.898 267.445 231.077C268.157 231.341 268.858 231.605 269.544 231.869C269.755 231.948 269.961 232.032 270.166 232.112C270.298 232.17 270.425 232.217 270.551 232.27C270.799 232.37 271.052 232.465 271.295 232.565C271.543 232.66 271.785 232.761 272.028 232.866C272.265 232.961 272.508 233.062 272.74 233.162C272.977 233.257 273.21 233.357 273.442 233.463C273.637 233.542 273.827 233.626 274.011 233.711C274.386 233.874 274.76 234.038 275.124 234.207C275.303 234.291 275.483 234.37 275.662 234.455L276.074 234.645C276.132 234.676 276.19 234.703 276.248 234.729C276.379 234.793 276.517 234.861 276.648 234.924C276.954 235.067 277.255 235.22 277.55 235.362C277.946 235.563 278.331 235.764 278.7 235.959C279.075 236.159 279.439 236.36 279.787 236.555C279.845 236.587 279.897 236.619 279.955 236.65C280.035 236.692 280.114 236.74 280.193 236.782C280.462 236.935 280.72 237.093 280.979 237.246C281.485 237.558 281.965 237.864 282.413 238.17C282.514 238.239 282.609 238.307 282.709 238.371C283.041 238.608 283.357 238.84 283.653 239.078C283.653 239.083 283.653 239.083 283.658 239.083C283.758 239.157 283.853 239.236 283.948 239.31C284.027 239.384 284.112 239.447 284.191 239.521C284.465 239.758 284.718 239.985 284.95 240.218C285.028 240.289 285.102 240.365 285.172 240.445C285.203 240.47 285.231 240.498 285.256 240.529C285.362 240.635 285.457 240.74 285.546 240.846C285.56 240.86 285.573 240.876 285.583 240.893C285.71 241.041 285.826 241.189 285.937 241.336C285.989 241.41 286.047 241.484 286.095 241.558C286.158 241.648 286.221 241.743 286.274 241.832C286.322 241.906 286.364 241.986 286.406 242.059C286.518 242.25 286.613 242.449 286.691 242.656C286.75 242.796 286.798 242.941 286.833 243.088C286.873 243.229 286.903 243.372 286.923 243.516Z" fill="#2F2E41"/>
<path opacity="0.2" d="M286.923 243.516C286.918 244.44 286.907 245.732 286.865 247.332C286.86 247.553 286.849 247.78 286.844 248.012C286.791 250.255 286.712 253.026 286.601 256.155C286.596 256.345 286.591 256.53 286.58 256.72C286.432 260.541 286.2 264.989 285.799 272.035C285.056 285.049 283.758 273.824 282.456 278.389C278.837 276.162 274.871 273.829 270.63 271.433C269.866 271 269.094 270.566 268.315 270.13C259.834 265.396 250.361 260.435 240.471 255.522C240.081 255.327 239.685 255.131 239.295 254.941C216.642 243.738 191.915 232.84 171.883 225.568C168.017 224.164 164.325 222.897 160.854 221.784C153.544 219.446 147.225 217.81 142.362 217.103C137.299 216.364 133.802 216.628 132.388 218.153C132.336 217.076 132.281 216.046 132.225 215.061C132.204 214.733 132.183 214.411 132.162 214.095C132.194 214.008 132.236 213.925 132.277 213.841C132.283 213.829 132.287 213.817 132.293 213.805C132.304 213.777 132.316 213.751 132.33 213.725C132.346 213.693 132.364 213.661 132.383 213.63C132.4 213.593 132.422 213.558 132.446 213.525C132.494 213.451 132.547 213.372 132.605 213.298C132.647 213.243 132.693 213.19 132.742 213.14C132.758 213.114 132.778 213.091 132.8 213.071C132.821 213.05 132.842 213.023 132.868 212.997C132.88 212.98 132.894 212.966 132.911 212.955C132.952 212.907 132.998 212.863 133.048 212.823C133.236 212.65 133.437 212.491 133.649 212.348C133.723 212.3 133.802 212.253 133.876 212.2C134.407 211.882 134.967 211.614 135.548 211.398C135.748 211.324 135.949 211.256 136.165 211.182C136.244 211.161 136.318 211.134 136.397 211.108C136.513 211.071 136.629 211.034 136.75 211.008C137.352 210.828 138 210.675 138.702 210.533C138.913 210.49 139.134 210.448 139.356 210.411C139.535 210.38 139.72 210.348 139.904 210.316C141.471 210.068 143.248 209.883 145.21 209.762C145.395 209.752 145.58 209.741 145.764 209.73C145.981 209.72 146.197 209.709 146.418 209.699C146.603 209.688 146.793 209.683 146.983 209.678C147.167 209.667 147.357 209.662 147.552 209.657C148.085 209.641 148.634 209.625 149.193 209.614C150.786 209.588 152.463 209.598 154.224 209.635C155.042 209.651 155.875 209.678 156.73 209.715C156.783 209.715 156.841 209.72 156.893 209.72C157.637 209.741 158.391 209.778 159.156 209.815C159.694 209.841 160.237 209.868 160.78 209.899C161.292 209.931 161.809 209.963 162.331 210C162.737 210.021 163.143 210.052 163.555 210.079C163.903 210.105 164.251 210.131 164.599 210.153C165.016 210.184 165.432 210.216 165.854 210.248C166.435 210.295 167.015 210.343 167.606 210.39C168.191 210.443 168.787 210.496 169.383 210.548C169.979 210.601 170.58 210.659 171.182 210.717C171.245 210.723 171.303 210.728 171.361 210.733C171.909 210.791 172.458 210.844 173.012 210.902C176.082 211.213 179.241 211.578 182.49 211.994C184.431 212.242 186.396 212.508 188.387 212.791C191.409 213.219 194.479 213.683 197.569 214.179C200.665 214.681 203.779 215.21 206.91 215.768C207.701 215.91 208.493 216.053 209.289 216.2C210.26 216.38 211.23 216.563 212.201 216.749C212.812 216.865 213.424 216.982 214.036 217.103C214.764 217.245 215.497 217.388 216.225 217.53C221.019 218.48 225.787 219.494 230.439 220.554C231.204 220.728 231.969 220.908 232.729 221.082C234.248 221.436 235.752 221.794 237.243 222.159C237.655 222.259 238.061 222.359 238.467 222.459C239.485 222.713 240.492 222.966 241.489 223.219V223.225C241.547 223.235 241.605 223.251 241.663 223.267C242.391 223.452 243.114 223.636 243.831 223.826C245.524 224.27 247.189 224.716 248.826 225.167C249.912 225.473 250.988 225.774 252.049 226.08C253.636 226.544 255.192 227.008 256.706 227.473C257.08 227.589 257.455 227.705 257.824 227.816C258.932 228.164 260.018 228.511 261.084 228.856C261.928 229.13 262.75 229.41 263.563 229.689C264.375 229.969 265.171 230.249 265.952 230.528C266.458 230.708 266.954 230.893 267.445 231.072C268.162 231.336 268.858 231.6 269.544 231.869C269.755 231.948 269.96 232.032 270.166 232.112C270.551 232.259 270.926 232.412 271.295 232.565C271.543 232.66 271.785 232.761 272.028 232.866C272.265 232.961 272.508 233.062 272.74 233.162C272.977 233.257 273.209 233.357 273.442 233.463C273.637 233.542 273.827 233.626 274.011 233.711C274.386 233.874 274.76 234.038 275.124 234.207C275.303 234.291 275.483 234.37 275.662 234.455L276.073 234.645C276.132 234.676 276.19 234.703 276.248 234.729C276.696 234.94 277.128 235.151 277.55 235.362C277.946 235.563 278.331 235.764 278.7 235.959C279.138 236.191 279.555 236.418 279.955 236.65C280.035 236.692 280.114 236.74 280.193 236.782C280.462 236.935 280.72 237.093 280.979 237.246C281.485 237.558 281.965 237.864 282.413 238.17C282.856 238.476 283.268 238.777 283.653 239.078C283.653 239.083 283.653 239.083 283.658 239.083C283.843 239.231 284.022 239.378 284.191 239.521C284.465 239.758 284.718 239.985 284.95 240.218C285.028 240.289 285.102 240.365 285.172 240.445C285.203 240.47 285.231 240.498 285.256 240.529C285.367 240.65 285.478 240.772 285.583 240.893C285.71 241.041 285.826 241.189 285.937 241.336C285.989 241.41 286.047 241.484 286.095 241.558C286.158 241.648 286.221 241.743 286.274 241.832C286.322 241.906 286.364 241.986 286.406 242.059C286.518 242.25 286.613 242.449 286.691 242.656C286.749 242.796 286.796 242.941 286.833 243.088C286.873 243.229 286.903 243.372 286.923 243.516Z" fill="black"/>
</g>
<defs>
<filter id="filter0_i_948_150" x="0" y="0" width="415" height="302" filterUnits="userSpaceOnUse" color-interpolation-filters="sRGB">
<feFlood flood-opacity="0" result="BackgroundImageFix"/>
<feBlend mode="normal" in="SourceGraphic" in2="BackgroundImageFix" result="shape"/>
<feColorMatrix in="SourceAlpha" type="matrix" values="0 0 0 0 0 0 0 0 0 0 0 0 0 0 0 0 0 0 127 0" result="hardAlpha"/>
<feOffset/>
<feGaussianBlur stdDeviation="80"/>
<feComposite in2="hardAlpha" operator="arithmetic" k2="-1" k3="1"/>
<feColorMatrix type="matrix" values="0 0 0 0 0.0352941 0 0 0 0 0.0352941 0 0 0 0 0.0352941 0 0 0 1 0"/>
<feBlend mode="normal" in2="shape" result="effect1_innerShadow_948_150"/>
</filter>
<clipPath id="clip0_948_150">
<rect width="415" height="302" fill="white"/>
</clipPath>
</defs>
</svg>
